<?xml version="1.0" encoding="UTF-8"?><svg xmlns="http://www.w3.org/2000/svg" xmlns:xlink="http://www.w3.org/1999/xlink" fill-opacity="1" color-rendering="auto" color-interpolation="auto" text-rendering="auto" stroke="black" stroke-linecap="square" width="626" stroke-miterlimit="10" shape-rendering="auto" stroke-opacity="1" fill="black" stroke-dasharray="none" font-weight="normal" stroke-width="1" height="240" font-family="'Dialog'" font-style="normal" stroke-linejoin="miter" font-size="12" stroke-dashoffset="0" image-rendering="auto">
  <!--Generated by ySVG 2.5-->
  <defs id="genericDefs"/>
  <g>
    <defs id="defs1">
      <clipPath clipPathUnits="userSpaceOnUse" id="clipPath1">
        <path d="M0 0 L626 0 L626 240 L0 240 L0 0 Z"/>
      </clipPath>
      <clipPath clipPathUnits="userSpaceOnUse" id="clipPath2">
        <path d="M466 472 L1092 472 L1092 712 L466 712 L466 472 Z"/>
      </clipPath>
    </defs>
    <g fill="white" text-rendering="geometricPrecision" shape-rendering="geometricPrecision" transform="translate(-466,-472)" stroke="white">
      <rect x="466" width="626" height="240" y="472" clip-path="url(#clipPath2)" stroke="none"/>
    </g>
    <g fill="rgb(238,238,238)" text-rendering="geometricPrecision" shape-rendering="geometricPrecision" transform="matrix(1,0,0,1,-466,-472)" stroke="rgb(238,238,238)">
      <rect x="481" width="137" height="30" y="487" clip-path="url(#clipPath2)" stroke="none"/>
    </g>
    <g text-rendering="geometricPrecision" stroke-miterlimit="1.45" shape-rendering="geometricPrecision" font-family="sans-serif" transform="matrix(1,0,0,1,-466,-472)" stroke-linecap="butt">
      <text x="496.8066" xml:space="preserve" y="506.7139" clip-path="url(#clipPath2)" stroke="none">Epsilon-Intersection</text>
      <rect fill="none" x="481" width="137" height="30" y="487" clip-path="url(#clipPath2)"/>
    </g>
    <g fill="rgb(238,238,238)" text-rendering="geometricPrecision" shape-rendering="geometricPrecision" transform="matrix(1,0,0,1,-466,-472)" stroke="rgb(238,238,238)">
      <rect x="481" width="137" height="30" y="547" clip-path="url(#clipPath2)" stroke="none"/>
    </g>
    <g text-rendering="geometricPrecision" stroke-miterlimit="1.45" shape-rendering="geometricPrecision" font-family="sans-serif" transform="matrix(1,0,0,1,-466,-472)" stroke-linecap="butt">
      <text x="523.1592" xml:space="preserve" y="566.7139" clip-path="url(#clipPath2)" stroke="none">Chi-Noise</text>
      <rect fill="none" x="481" width="137" height="30" y="547" clip-path="url(#clipPath2)"/>
    </g>
    <g fill="white" text-rendering="geometricPrecision" shape-rendering="geometricPrecision" transform="matrix(1,0,0,1,-466,-472)" stroke="white">
      <rect x="904" width="137" height="30" y="547" clip-path="url(#clipPath2)" stroke="none"/>
    </g>
    <g text-rendering="geometricPrecision" stroke-miterlimit="1.45" shape-rendering="geometricPrecision" font-family="sans-serif" transform="matrix(1,0,0,1,-466,-472)" stroke-linecap="butt">
      <text x="956.4893" xml:space="preserve" y="566.7139" clip-path="url(#clipPath2)" stroke="none">Paper</text>
      <rect fill="none" x="904" width="137" height="30" y="547" clip-path="url(#clipPath2)"/>
    </g>
    <g fill="white" text-rendering="geometricPrecision" shape-rendering="geometricPrecision" transform="matrix(1,0,0,1,-466,-472)" stroke="white">
      <rect x="904" width="137" height="30" y="667" clip-path="url(#clipPath2)" stroke="none"/>
    </g>
    <g text-rendering="geometricPrecision" stroke-miterlimit="1.45" shape-rendering="geometricPrecision" font-family="sans-serif" transform="matrix(1,0,0,1,-466,-472)" stroke-linecap="butt">
      <text x="960.8281" xml:space="preserve" y="686.7139" clip-path="url(#clipPath2)" stroke="none">Map</text>
      <rect fill="none" x="904" width="137" height="30" y="667" clip-path="url(#clipPath2)"/>
    </g>
    <g fill="white" text-rendering="geometricPrecision" shape-rendering="geometricPrecision" transform="matrix(1,0,0,1,-466,-472)" stroke="white">
      <rect x="737" width="137" height="30" y="547" clip-path="url(#clipPath2)" stroke="none"/>
    </g>
    <g text-rendering="geometricPrecision" stroke-miterlimit="1.45" shape-rendering="geometricPrecision" font-family="sans-serif" transform="matrix(1,0,0,1,-466,-472)" stroke-linecap="butt">
      <text x="781.4883" xml:space="preserve" y="566.7139" clip-path="url(#clipPath2)" stroke="none">Charcoal</text>
      <rect fill="none" x="737" width="137" height="30" y="547" clip-path="url(#clipPath2)"/>
    </g>
    <g fill="white" text-rendering="geometricPrecision" shape-rendering="geometricPrecision" transform="matrix(1,0,0,1,-466,-472)" stroke="white">
      <rect x="737" width="137" height="30" y="607" clip-path="url(#clipPath2)" stroke="none"/>
    </g>
    <g text-rendering="geometricPrecision" stroke-miterlimit="1.45" shape-rendering="geometricPrecision" font-family="sans-serif" transform="matrix(1,0,0,1,-466,-472)" stroke-linecap="butt">
      <text x="794.833" xml:space="preserve" y="626.7139" clip-path="url(#clipPath2)" stroke="none">GUI</text>
      <rect fill="none" x="737" width="137" height="30" y="607" clip-path="url(#clipPath2)"/>
      <path fill="none" stroke-dasharray="6,2" d="M549.5 547 L549.5 525" clip-path="url(#clipPath2)"/>
      <path stroke-dasharray="6,2" d="M549.5 517 L544.5 529 L549.5 526 L554.5 529 Z" clip-path="url(#clipPath2)" stroke="none"/>
      <path fill="none" stroke-dasharray="6,2" d="M977.6921 666.9987 L977.6921 584.9998" clip-path="url(#clipPath2)"/>
      <path stroke-dasharray="6,2" d="M977.6921 576.9998 L972.6921 588.9998 L977.6921 585.9998 L982.6921 588.9998 Z" clip-path="url(#clipPath2)" stroke="none"/>
      <path fill="none" stroke-dasharray="6,2" d="M1041 682 L1077 682 L1077 497.7727 L626.0282 497.7727" clip-path="url(#clipPath2)"/>
      <path stroke-dasharray="6,2" d="M618.0282 497.7727 L630.0282 502.7727 L627.0282 497.7727 L630.0282 492.7727 Z" clip-path="url(#clipPath2)" stroke="none"/>
      <path fill="none" stroke-dasharray="6,2" d="M805.5 547 L805.5 507.2099 L626.0146 507.2099" clip-path="url(#clipPath2)"/>
      <path stroke-dasharray="6,2" d="M618.0146 507.2099 L630.0146 512.2099 L627.0146 507.2099 L630.0146 502.2099 Z" clip-path="url(#clipPath2)" stroke="none"/>
      <path fill="none" stroke-dasharray="6,2" d="M805.5 607 L805.5 585" clip-path="url(#clipPath2)"/>
      <path stroke-dasharray="6,2" d="M805.5 577 L800.5 589 L805.5 586 L810.5 589 Z" clip-path="url(#clipPath2)" stroke="none"/>
      <path fill="none" stroke-dasharray="6,2" d="M737 622 L549.5 622 L549.5 585" clip-path="url(#clipPath2)"/>
      <path stroke-dasharray="6,2" d="M549.5 577 L544.5 589 L549.5 586 L554.5 589 Z" clip-path="url(#clipPath2)" stroke="none"/>
      <path fill="none" stroke-dasharray="6,2" d="M874 622 L965.568 622 L965.568 584.9807" clip-path="url(#clipPath2)"/>
      <path stroke-dasharray="6,2" d="M965.568 576.9807 L960.568 588.9807 L965.568 585.9807 L970.568 588.9807 Z" clip-path="url(#clipPath2)" stroke="none"/>
    </g>
  </g>
</svg>
